# xmcd
#
# Track frame offsets:
#	150
#	18663
#	32658
#	46608
#	63074
#	77775
#	100608
#	114872
#	136662
#	150583
#	165245
#
# Disc length: 2472
#
# Revision: 1
# Processed by: cddbd v1.5.1PL0 Copyright (c) Steve Scherf et al.
# Submitted via: VisiTrax 2.9.9.202 - For more info visit www.synapsa.com
# Normalized: r0:DSETVAR1
#
DISCID=6c09a60b
DTITLE=Various Artist - The Devil's Music [CD3]
DYEAR=2003
DGENRE=
TTITLE0=Memphis Slim - Wish Me Well
TTITLE1=Memphis Slim - I Wrote This Song
TTITLE2=Memphis Slim - All By Myself
TTITLE3=Sonny Boy Williamson - 99
TTITLE4=Sonny Boy Williamson - Bye Bye Bird
TTITLE5=Memphis Slim - In The Evening
TTITLE6=Matt Murphy - Grooving On Bounce
TTITLE7=Matt Murphy - Taking Off
TTITLE8=Sonny Boy Williamson - All My Love In Vain
TTITLE9=Sonny Boy Williamson - Your Funeral And My Trial
TTITLE10=Sonny Boy Williamson - Don't Start Me To Talking
EXTD=
EXTT0=
EXTT1=
EXTT2=
EXTT3=
EXTT4=
EXTT5=
EXTT6=
EXTT7=
EXTT8=
EXTT9=
EXTT10=
PLAYORDER=
